<?xml version="1.0" encoding="utf-8"?>
<!-- Generator: Adobe Illustrator 25.2.0, SVG Export Plug-In . SVG Version: 6.00 Build 0)  -->
<svg version="1.1" id="Layer_1" xmlns="http://www.w3.org/2000/svg" xmlns:xlink="http://www.w3.org/1999/xlink" x="0px" y="0px"
	 viewBox="0 0 32 32" style="enable-background:new 0 0 32 32;" xml:space="preserve">
<style type="text/css">
	.st0{fill:#FFFFFF;}
	.st1{fill:#C6C6C6;}
	.st2{fill:#040404;}
</style>
<circle class="st0" cx="16.1" cy="15.9" r="15.5"/>
<path class="st1" d="M33.4,8.1"/>
<path class="st2" d="M16,32C7.2,32,0,24.9,0,16C0,7.2,7.1,0,16,0c8.8,0,16,7.2,16,16C32,24.8,24.8,32,16,32z M18.6,24.2
	c-3.5-1.4-5.7-3.8-6-7.6c-0.3-4.4,1.9-7.3,6-9c-3.4-1.1-7.3,0.3-9.4,3.4c-2.1,3-2,7.2,0.1,10.1C11.7,24.2,15.6,25.1,18.6,24.2z
	 M19.1,13.1c0.6,0.1,1.2,0.3,1.8,0.4c0.4,0.1,0.6,0.3,0.7,0.7c0.1,0.5,0.2,0.9,0.3,1.4c0,0.1,0,0.4,0.2,0.4c0.2,0,0.2-0.2,0.2-0.4
	c0.1-0.4,0.2-0.9,0.2-1.3c0.1-0.4,0.3-0.7,0.7-0.8c0.6-0.1,1.2-0.3,2-0.4c-0.7-0.2-1.3-0.3-1.8-0.4c-0.6-0.1-0.8-0.4-0.9-0.9
	c-0.1-0.7-0.2-1.3-0.4-2c-0.2,0.7-0.4,1.4-0.5,2.1c-0.1,0.5-0.3,0.7-0.8,0.8C20.2,12.8,19.6,12.8,19.1,13.1z M13.7,27.9
	c-0.3-0.3-0.5-0.3-0.7-0.3c-0.5-0.1-0.7-0.3-0.8-0.8c0-0.3-0.1-0.6-0.1-0.9c-0.2,1-0.4,1.9-1.8,1.8c0.3,0.3,0.6,0.3,0.8,0.3
	c0.5,0.1,0.7,0.3,0.7,0.7c0,0.3,0,0.5,0.3,0.8C12.1,28.5,12.4,27.7,13.7,27.9z M26.3,18.5c0,0.9-0.4,1.4-1.4,1.4
	c0.1,0.2,0.3,0.2,0.4,0.2c0.6,0,0.8,0.3,0.8,0.9c0,0.2,0,0.3,0.2,0.5c0.2-0.4,0-0.8,0.3-1.1c0.3-0.3,0.7-0.1,1.2-0.5
	C26.7,20,26.4,19.4,26.3,18.5z M13.5,4.2c-0.9,0-1.3-0.4-1.3-1.4c-0.1,0.8-0.4,1.4-1.3,1.4c0.8,0,1.3,0.4,1.3,1.3
	C12.2,4.5,12.7,4.3,13.5,4.2z M4.6,13.9c-0.7,0-0.9-0.5-1-1.1c0,0.6-0.3,1-1,1.1c0.7,0,0.9,0.4,1,1C3.6,14.1,4,13.9,4.6,13.9z"/>
</svg>
