<?xml version="1.0" encoding="utf-8"?>
<!-- Generator: Adobe Illustrator 25.2.0, SVG Export Plug-In . SVG Version: 6.00 Build 0)  -->
<svg version="1.1" id="Layer_1" xmlns="http://www.w3.org/2000/svg" xmlns:xlink="http://www.w3.org/1999/xlink" x="0px" y="0px"
	 viewBox="0 0 32 32" style="enable-background:new 0 0 32 32;" xml:space="preserve">
<style type="text/css">
	.st0{fill:#FFFFFF;}
	.st1{fill:#C6C6C6;}
	.st2{fill:#040404;}
</style>
<circle class="st0" cx="16.1" cy="15.9" r="15.5"/>
<path class="st1" d="M33.4,8.1"/>
<path class="st2" d="M15.9,31.8c-8.8,0-15.8-7.2-15.8-15.9c0-8.7,7.2-15.8,16-15.7c8.8,0,15.8,7.2,15.8,16
	C31.8,24.8,24.7,31.9,15.9,31.8z M3.1,15.5c0.6,0.3,1.1,0.6,1.6,0.9c1,0.6,1.3,1.6,0.8,2.6C5.3,19.5,5,20,4.8,20.4
	c-0.1,0.2-0.1,0.3,0.2,0.3c0.5,0,1,0,1.5,0.1c0.6,0,1.1,0.2,1.5,0.7c0.2,0.2,0.2,0.3,0,0.5c-0.5,0.4-0.7,1-0.9,1.6
	c-0.4,1.6,0.5,2.7,2.2,2.7c5.7,0,11.4,0,17.1,0c0.5,0,0.9-0.2,1.2-0.6c2.7-3.3,3.9-7.1,3.6-11.4c0-0.4-0.1-0.7-0.4-0.9
	c-1.7-1.9-3.8-2.6-6.3-2.1c-1.5,0.3-2.7-1.1-2.3-2.3c0.2-0.6,0.3-1.2,0.4-1.9c-0.7,0.1-1.3,0.2-1.9,0.4c-1.1,0.2-2-0.4-2.2-1.4
	c-0.1-0.5-0.3-1-0.4-1.5c-0.1-0.3-0.1-0.3-0.3-0.1c-0.4,0.3-0.8,0.6-1.2,0.9c-0.9,0.7-1.9,0.7-2.7-0.2c-0.4-0.4-0.8-0.9-1.2-1.4
	c-0.3,0.6-0.5,1.2-0.7,1.7c-0.5,1-1.4,1.4-2.5,1.1C8.9,6.5,8.5,6.4,8,6.2c-0.3-0.1-0.4,0-0.3,0.3c0,0.5,0.1,0.9,0.1,1.4
	C7.8,9.2,7.2,9.9,5.8,10c-0.5,0.1-1,0.1-1.6,0.2c0.4,0.6,0.7,1.1,1,1.6c0.6,1,0.4,2-0.6,2.7C4.2,14.8,3.7,15.2,3.1,15.5z"/>
</svg>
